<svg width="512" height="512" viewBox="0 0 512 512" fill="none" xmlns="http://www.w3.org/2000/svg">
<path d="M9 256C9 119.586 119.586 9 256 9C272.016 9 285 21.9837 285 38C285 54.0163 272.016 67 256 67C151.618 67 67 151.618 67 256C67 360.382 151.618 445 256 445C360.382 445 445 360.382 445 256C445 238.699 442.683 221.986 438.358 206.131C434.144 190.679 443.254 174.736 458.706 170.521C474.158 166.307 490.101 175.417 494.315 190.869C499.983 211.651 503 233.496 503 256C503 392.414 392.414 503 256 503C119.586 503 9 392.414 9 256Z" fill="white"/>
<circle cx="170" cy="369" r="21" fill="white"/>
<circle cx="227" cy="369" r="21" fill="white"/>
<circle cx="284" cy="369" r="21" fill="white"/>
<circle cx="341" cy="369" r="21" fill="white"/>
<path d="M318.357 323.055C308.241 323.055 299.222 321.194 291.3 317.472C283.426 313.75 277.175 308.62 272.546 302.082C267.917 295.545 265.507 288.053 265.317 279.606H295.38C295.714 285.285 298.1 289.89 302.538 293.421C306.976 296.953 312.249 298.718 318.357 298.718C323.225 298.718 327.519 297.644 331.242 295.497C335.011 293.302 337.946 290.272 340.046 286.406C342.193 282.493 343.267 278.008 343.267 272.949C343.267 267.796 342.169 263.262 339.974 259.349C337.827 255.436 334.844 252.382 331.027 250.187C327.209 247.992 322.843 246.871 317.928 246.823C313.633 246.823 309.457 247.706 305.401 249.471C301.393 251.237 298.267 253.647 296.024 256.701L268.466 251.762L275.409 174.456H365.027V199.795H300.963L297.17 236.515H298.029C300.605 232.889 304.495 229.882 309.696 227.496C314.897 225.11 320.719 223.917 327.161 223.917C335.99 223.917 343.863 225.993 350.783 230.145C357.702 234.296 363.166 239.999 367.175 247.252C371.183 254.458 373.163 262.761 373.116 272.162C373.163 282.04 370.873 290.821 366.244 298.503C361.663 306.139 355.245 312.151 346.989 316.542C338.781 320.884 329.237 323.055 318.357 323.055Z" fill="white"/>
<path d="M141.882 321.051V298.718L194.064 250.402C198.502 246.107 202.224 242.242 205.23 238.806C208.284 235.37 210.599 232.006 212.174 228.713C213.748 225.373 214.536 221.77 214.536 217.905C214.536 213.61 213.557 209.911 211.601 206.81C209.644 203.66 206.972 201.25 203.584 199.58C200.196 197.862 196.354 197.003 192.06 197.003C187.574 197.003 183.661 197.91 180.321 199.723C176.98 201.537 174.403 204.137 172.59 207.526C170.777 210.914 169.87 214.946 169.87 219.622H140.451C140.451 210.031 142.622 201.704 146.964 194.641C151.307 187.579 157.391 182.115 165.217 178.249C173.043 174.384 182.062 172.451 192.274 172.451C202.773 172.451 211.911 174.312 219.689 178.035C227.516 181.709 233.6 186.815 237.942 193.353C242.285 199.89 244.456 207.382 244.456 215.829C244.456 221.364 243.359 226.828 241.163 232.221C239.016 237.613 235.175 243.602 229.639 250.187C224.104 256.725 216.301 264.575 206.232 273.737L184.83 294.71V295.712H246.389V321.051H141.882Z" fill="white"/>
</svg>
